<?xml version="1.0" encoding="UTF-8"?>
<svg width="1024" height="1024" viewBox="0 0 1024 1024" xmlns="http://www.w3.org/2000/svg">
  <!-- Background with subtle gradient matching glassmorphism theme -->
  <defs>
    <linearGradient id="backgroundGradient" x1="0%" y1="0%" x2="100%" y2="100%">
      <stop offset="0%" style="stop-color:#667eea;stop-opacity:1" />
      <stop offset="50%" style="stop-color:#764ba2;stop-opacity:1" />
      <stop offset="100%" style="stop-color:#6B73FF;stop-opacity:1" />
    </linearGradient>
    
    <linearGradient id="dollarGradient" x1="0%" y1="0%" x2="100%" y2="100%">
      <stop offset="0%" style="stop-color:#ffffff;stop-opacity:0.95" />
      <stop offset="100%" style="stop-color:#f8f9ff;stop-opacity:0.90" />
    </linearGradient>
    
    <linearGradient id="chartGradient" x1="0%" y1="100%" x2="100%" y2="0%">
      <stop offset="0%" style="stop-color:#4CAF50;stop-opacity:0.8" />
      <stop offset="100%" style="stop-color:#8BC34A;stop-opacity:0.9" />
    </linearGradient>
    
    <!-- Drop shadow filter -->
    <filter id="shadow" x="-50%" y="-50%" width="200%" height="200%">
      <feDropShadow dx="2" dy="4" stdDeviation="6" flood-color="#000000" flood-opacity="0.2"/>
    </filter>
  </defs>
  
  <!-- Main background -->
  <rect width="1024" height="1024" fill="url(#backgroundGradient)" />
  
  <!-- Chart bars in background (subtle financial growth representation) -->
  <g opacity="0.3" transform="translate(150, 600)">
    <rect x="0" y="100" width="60" height="100" fill="url(#chartGradient)" rx="8" />
    <rect x="80" y="80" width="60" height="120" fill="url(#chartGradient)" rx="8" />
    <rect x="160" y="50" width="60" height="150" fill="url(#chartGradient)" rx="8" />
    <rect x="240" y="20" width="60" height="180" fill="url(#chartGradient)" rx="8" />
    <rect x="320" y="0" width="60" height="200" fill="url(#chartGradient)" rx="8" />
    
    <!-- Connecting line for trend -->
    <path d="M 30 150 L 110 130 L 190 105 L 270 70 L 350 50" 
          stroke="url(#chartGradient)" 
          stroke-width="8" 
          fill="none" 
          stroke-linecap="round" 
          opacity="0.6" />
  </g>
  
  <!-- Main dollar sign symbol -->
  <g transform="translate(512, 512)" filter="url(#shadow)">
    <!-- Dollar sign path - clean, bold, modern -->
    <path d="M -80 -200 
             C -80 -240, -50 -270, -10 -270
             L 50 -270
             C 90 -270, 120 -240, 120 -200
             C 120 -160, 90 -130, 50 -130
             L -30 -130
             C -50 -130, -60 -120, -60 -100
             C -60 -80, -50 -70, -30 -70
             L 50 -70
             C 90 -70, 120 -40, 120 0
             C 120 40, 90 70, 50 70
             L -10 70
             C -50 70, -80 40, -80 0
             L -40 0
             C -40 20, -25 30, -10 30
             L 50 30
             C 70 30, 80 20, 80 0
             C 80 -20, 70 -30, 50 -30
             L -30 -30
             C -70 -30, -100 -60, -100 -100
             C -100 -140, -70 -170, -30 -170
             L 50 -170
             C 70 -170, 80 -180, 80 -200
             C 80 -220, 70 -230, 50 -230
             L -10 -230
             C -30 -230, -40 -220, -40 -200"
          fill="url(#dollarGradient)" 
          stroke="rgba(255,255,255,0.4)" 
          stroke-width="3" />
    
    <!-- Vertical lines through dollar sign -->
    <rect x="-8" y="-280" width="16" height="100" fill="url(#dollarGradient)" rx="8" />
    <rect x="-8" y="180" width="16" height="100" fill="url(#dollarGradient)" rx="8" />
  </g>
  
  <!-- Subtle overlay for depth -->
  <rect width="1024" height="1024" fill="url(#dollarGradient)" opacity="0.05" />
</svg>